<?xml version="1.0" encoding="utf-8"?>
<!-- Generator: Adobe Illustrator 24.1.0, SVG Export Plug-In . SVG Version: 6.00 Build 0)  -->
<svg version="1.1" id="_x2014_ÎÓÈ_x5F_1" xmlns="http://www.w3.org/2000/svg" xmlns:xlink="http://www.w3.org/1999/xlink"
	 x="0px" y="0px" viewBox="0 0 595 842" style="enable-background:new 0 0 595 842;" xml:space="preserve">
<style type="text/css">
	.st0{fill-rule:evenodd;clip-rule:evenodd;fill:#B0B6BA;}
	.st1{fill-rule:evenodd;clip-rule:evenodd;fill:#AC5330;}
	.st2{fill-rule:evenodd;clip-rule:evenodd;fill:#F5F4F0;}
	.st3{fill-rule:evenodd;clip-rule:evenodd;fill:#4F6130;}
	.st4{fill-rule:evenodd;clip-rule:evenodd;fill:#3F2F2D;}
	.st5{fill:#5E7B38;}
	.st6{font-family:'Cocogoose';}
	.st7{font-size:8px;}
	.st8{fill:#FFFFFF;}
	.st9{font-family:'Renogare-Regular';}
	.st10{font-size:12px;}
	.st11{fill:#69625A;}
	.st12{font-family:'BrixtonBook';}
	.st13{font-size:3.6227px;}
	.st14{fill:none;stroke:#69625A;stroke-width:0.25;stroke-miterlimit:10;}
</style>
<path class="st0" d="M164.1,386.9c3.6-31.1,99.3,8.6,116.8,13.2C255.1,400.1,160,422.1,164.1,386.9z"/>
<path class="st1" d="M163.5,438.2c-0.2-0.2,2.7-0.5,6.4-1.2l86.9-22.1l0.3-0.2H257L163.5,438.2z"/>
<path class="st2" d="M157.2,439c-2.2-10.1-3.3-16.9-3.3-33.4s4.9-43.2,13.7-62.1l134.3,63L157.2,439z"/>
<path class="st3" d="M119.6,443.1c-0.2-0.8-0.3-1.7-0.5-2.5c-1.8-9.2-2.9-17.6-2.9-34.5c0-18.7,5.1-48.5,14.4-71.7
	c0.3-0.8,0.6-1.6,1-2.4c1.7-3.7,2.6-4,6.4-2.4l29.4,13.8c-8.8,18.9-13.7,45.7-13.7,62.1s1.4,23.9,3.5,33.8l-29.1,6
	C123.1,446.7,120.5,446.9,119.6,443.1z"/>
<path class="st3" d="M117.6,431.1l37.3-5.3c0.6,4.8,1.4,8.9,2.4,13.6l-29.1,6c-5.2,1.2-7.8,1.5-8.6-2.3c-0.2-0.8-0.3-1.7-0.5-2.5
	C118.5,437.5,118,434.4,117.6,431.1z"/>
<path class="st4" d="M167.3,384.7c-4.4,0-7.9,3.5-7.9,7.9s3.5,7.9,7.9,7.9s7.9-3.5,7.9-7.9S171.7,384.7,167.3,384.7z"/>
<text transform="matrix(1 0 0 1 176.6933 396.5737)" class="st5 st6 st7">SURROUNDINGS</text>
<text transform="matrix(1 0 0 1 162.9935 396.9086)" class="st8 st9 st10">6</text>
<g>
	<g>
		<path class="st11" d="M446.3,161.7h2.5V161H447v-7.3h-0.7V161.7z M441.4,161.8c0.9,0,1.4-0.6,1.4-1.8v-6.3h-0.7v6.2
			c0,0.9-0.2,1.2-0.7,1.2s-0.7-0.3-0.7-1.2v-6.2H440v6.3C440,161.2,440.5,161.8,441.4,161.8z M435.2,161.1c-0.6,0-0.8-0.8-0.8-3.4
			c0-2.7,0.2-3.4,0.8-3.4c0.6,0,0.8,0.8,0.8,3.4C436,160.4,435.8,161.1,435.2,161.1z M435.2,161.8c1.2,0,1.5-1,1.5-4.1
			s-0.4-4.1-1.5-4.1c-1.2,0-1.5,1-1.5,4.1S434,161.8,435.2,161.8z M429.2,161.8c0.9,0,1.4-0.6,1.4-2c0-1-0.3-1.7-1.1-2.5
			c-0.7-0.7-0.9-1.2-0.9-2c0-0.7,0.2-1,0.6-1s0.6,0.4,0.7,1.4h0.7c-0.1-1.4-0.5-2.1-1.3-2.1c-0.9,0-1.3,0.6-1.3,1.7
			c0,1,0.3,1.7,1.1,2.5c0.7,0.7,0.9,1.2,0.9,2c0,0.9-0.2,1.3-0.7,1.3s-0.7-0.5-0.8-1.7h-0.7C427.8,161.1,428.2,161.8,429.2,161.8z"
			/>
		<path class="st11" d="M488.7,161.7h2.5V161h-1.9v-3.2h1.6v-0.6h-1.6v-2.8h1.9v-0.6h-2.5V161.7z M483.4,161h-0.3v-6.7h0.3
			c0.9,0,1.3,0.9,1.3,3.3S484.3,161,483.4,161z M483.4,153.7h-1v8h1c1.4,0,1.9-1.2,1.9-4C485.4,154.9,484.8,153.7,483.4,153.7z
			 M477.6,161.1c-0.6,0-0.8-0.8-0.8-3.4c0-2.7,0.2-3.4,0.8-3.4s0.8,0.8,0.8,3.4C478.4,160.4,478.2,161.1,477.6,161.1z M477.6,161.8
			c1.2,0,1.5-1,1.5-4.1s-0.4-4.1-1.5-4.1c-1.2,0-1.5,1-1.5,4.1S476.4,161.8,477.6,161.8z M470.7,161v-3.2h0.3c0.9,0,1.2,0.4,1.2,1.6
			c0,1.2-0.3,1.6-1.1,1.6L470.7,161L470.7,161z M470.7,157.1v-2.8h0.3c0.8,0,1.1,0.4,1.1,1.4s-0.3,1.4-1.2,1.4L470.7,157.1
			L470.7,157.1z M470,161.7h1.1c1.2,0,1.8-0.7,1.8-2.2c0-1.1-0.3-1.8-1.1-2l0,0c0.7-0.2,1-0.8,1-1.7c0-1.3-0.6-2-1.8-2h-1V161.7z"/>
		<path class="st11" d="M466.4,161.7c-0.2,0-0.4,0-0.6,0c0-0.9,0-1.7,0-2.6c-4.4,0-8.7,0-13.1,0c0,0.9,0,1.7,0,2.6
			c-0.2,0-0.4,0-0.6,0c0,0,0-1.7,0-2.6c0-0.8,0-2,0-3.5c2.3-2.7,4.6-5.5,7-8.2c0.1,0.1,0.2,0.2,0.3,0.3c0.9,0.9,1.7,1.8,2.6,2.7
			c1.2,1.2,2.4,2.5,3.6,3.7c0.3,0.3,0.6,0.6,0.9,0.9C466.4,157.2,466.4,159.4,466.4,161.7z M454.4,158.5c3.8,0,7.6,0,11.4,0
			c0-0.3,0-0.6,0-0.9c-0.5-0.6-5.5-5.8-5.6-5.9C458.2,153.9,456.3,156.2,454.4,158.5z M452.7,157.1c2.1-2.5,4.2-5,6.4-7.5
			c1.1,1.2,2.2,2.3,3.4,3.5c1.1,1.2,2.2,2.3,3.4,3.5c0-0.5,0-0.9,0-1.3c-2.2-2.3-4.5-4.7-6.7-7c-2.1,2.5-4.3,5-6.4,7.5
			C452.7,156.2,452.7,156.6,452.7,157.1z M453.5,158.5c0.5-0.6,6.1-7.2,6.2-7.3c-0.2-0.2-0.4-0.4-0.6-0.7c-2.1,2.5-4.3,5-6.4,7.5
			c0,0.2,0,0.3,0,0.4C453,158.5,453.3,158.5,453.5,158.5z"/>
	</g>
	<text transform="matrix(1.142 0 0 1 433.0928 169.0039)" class="st11 st12 st13">A HOME FOR THE SOUL</text>
	<text transform="matrix(1.142 0 0 1 433.0928 169.0039)" class="st14 st12 st13">A HOME FOR THE SOUL</text>
</g>
</svg>
