<?xml version="1.0" encoding="utf-8"?>
<!-- Generator: Adobe Illustrator 24.1.0, SVG Export Plug-In . SVG Version: 6.00 Build 0)  -->
<svg version="1.1" id="_x2014_ÎÓÈ_x5F_1" xmlns="http://www.w3.org/2000/svg" xmlns:xlink="http://www.w3.org/1999/xlink"
	 x="0px" y="0px" viewBox="0 0 595 842" style="enable-background:new 0 0 595 842;" xml:space="preserve">
<style type="text/css">
	.st0{fill-rule:evenodd;clip-rule:evenodd;fill:#3F2F2D;}
	.st1{fill-rule:evenodd;clip-rule:evenodd;fill:#AC5330;}
	.st2{fill-rule:evenodd;clip-rule:evenodd;fill:url(#SVGID_1_);}
	.st3{fill:#FFFFFF;}
	.st4{font-family:'Renogare-Regular';}
	.st5{font-size:12px;}
	.st6{fill:#5E7B38;}
	.st7{font-family:'Cocogoose';}
	.st8{font-size:8px;}
	.st9{fill:#69625A;}
	.st10{font-family:'BrixtonBook';}
	.st11{font-size:3.6227px;}
	.st12{fill:none;stroke:#69625A;stroke-width:0.25;stroke-miterlimit:10;}
</style>
<path class="st0" d="M276.2,578.6c-1.4-0.2-2.8-0.4-4.3-0.7c-71.8-12.4-123.2-66.8-135.9-134.7l35.5-7.8
	c12.4,54.6,58.4,96.5,115,102.9l-4.1,35.4C282,578.6,281.2,579.2,276.2,578.6z"/>
<g>
	<path class="st0" d="M280.8,575.9c-2.6-0.3-6.5-0.3-11-1.3c-4.4-0.9-5.8-1.8-4.4-7.2l6.8-31.5c4.3,1,8.6,1.7,13,2.3L280.8,575.9
		L280.8,575.9z M299.9,407l0.6-2.7l0.1-0.3v0.1l-0.3,2.9H299.9z"/>
	<g>
		<path class="st0" d="M281.1,573.3c-2.5-0.3-6.2-0.4-10.5-1.5c-4-1.9-5.3-3.8-3.7-10.1l5.5-25.7c4.2,0.9,8.4,1.7,12.8,2.2
			L281.1,573.3L281.1,573.3z M300.1,406.9l0.1-0.7c0-0.1,0.1-0.2,0.1-0.3l-0.1,0.9L300.1,406.9z"/>
		<path class="st0" d="M281.4,570.7c-2.3-0.2-5.8-0.6-9.9-1.8c-3.7-3-4.7-5.9-3.1-12.9l4.3-19.9c4.1,0.9,8.3,1.6,12.5,2.2
			L281.4,570.7z"/>
		<path class="st0" d="M281.7,568.1c-2.2-0.2-5.5-0.7-9.4-2c-3.3-4-4.2-7.9-2.5-15.8l3-14.2c4,0.9,8.1,1.6,12.3,2.1L281.7,568.1z"/>
		<path class="st0" d="M282,565.5c-2.1-0.2-5.2-0.8-8.9-2.3c-3-5-3.6-10-1.9-18.7l1.8-8.4c4,0.9,8,1.6,12.1,2.1L282,565.5z"/>
		<path class="st0" d="M282.4,562.9c-1.9-0.2-4.9-0.9-8.3-2.5c-2.6-6.1-3.1-12.1-1.3-21.6l0.6-2.6c3.9,0.8,7.9,1.5,11.9,2
			L282.4,562.9z"/>
		<path class="st0" d="M282.7,560.3c-1.8-0.1-4.6-1-7.8-2.8c-2-6.3-2.4-12.6-1.2-21.2c3.8,0.8,7.6,1.5,11.5,1.9L282.7,560.3z"/>
		<path class="st0" d="M283,557.7c-1.7-0.1-4.3-1.1-7.2-3c-1.4-5.7-1.8-11.4-1.2-18.2c3.5,0.7,7.1,1.3,10.7,1.8L283,557.7z"/>
		<path class="st0" d="M283.3,555.1c-1.5-0.1-4-1.2-6.7-3.3c-0.9-4.9-1.2-9.8-1-15.2c3.2,0.6,6.4,1.1,9.7,1.5L283.3,555.1z"/>
		<path class="st0" d="M283.6,552.5c-1.4-0.1-3.6-1.4-6.1-3.5c-0.5-4-0.7-8-0.7-12.1c2.8,0.5,5.6,1,8.5,1.3L283.6,552.5z"/>
		<path class="st0" d="M283.9,549.9c-1.3-0.1-3.3-1.5-5.6-3.8c-0.2-3-0.4-6-0.4-9c2.4,0.4,4.9,0.8,7.4,1.1L283.9,549.9z"/>
		<path class="st0" d="M284.2,547.3c-1.1,0-3-1.6-5-4c-0.1-2-0.1-4-0.2-6c2.1,0.4,4.2,0.7,6.3,0.9L284.2,547.3z"/>
		<path class="st0" d="M284.6,544.7c-1,0-2.7-1.7-4.5-4.3c0-1,0-2,0-3c1.8,0.3,3.5,0.5,5.3,0.8L284.6,544.7z"/>
		<path class="st0" d="M284.9,542.1c-0.9,0-2.4-1.8-3.9-4.5c1.5,0.2,2.9,0.4,4.4,0.6L284.9,542.1z"/>
		<path class="st0" d="M285.2,539.5c-0.4,0-1-0.6-1.6-1.5c0.6,0.1,1.2,0.2,1.8,0.2L285.2,539.5z"/>
	</g>
</g>
<path class="st0" d="M136.1,443.5c0.7,2.7,0.9,7,2.9,11.5c1.2,2.6,1.9,5.6,6.3,3.6l153.6-53.2l0.3-0.2h-0.1L136.1,443.5z"/>
<g>
	<path class="st0" d="M137.4,443.3c0.6,2.6,1,6.6,3,10.9c2.5,2.2,4.6,4.7,10.2,2.4l24.5-8.5c-0.1-0.3-0.2-0.6-0.3-0.9
		c-0.2-0.5-0.3-1.1-0.5-1.6c-0.1-0.3-0.2-0.6-0.3-0.9c-0.2-0.6-0.4-1.2-0.5-1.7l-0.2-0.7c-0.2-0.6-0.4-1.3-0.5-1.9l-0.1-0.5
		c-0.2-0.7-0.4-1.4-0.5-2.1l-0.1-0.4c-0.1-0.5-0.2-1-0.4-1.5l-14.5,3.2l-0.1-0.4L137.4,443.3z"/>
	<path class="st0" d="M138.7,443c0.6,2.4,1.1,6.3,3.2,10.3c3.8,1.7,7.2,3.7,14,1.1l19.1-6.6l0,0l-0.2-0.5c-0.2-0.7-0.4-1.3-0.6-2
		l-0.1-0.4c-0.2-0.7-0.4-1.4-0.6-2.1l-0.1-0.4c-0.2-0.7-0.4-1.4-0.6-2.1l-0.1-0.4c-0.2-0.7-0.4-1.4-0.6-2.1l-0.1-0.5
		c-0.1-0.5-0.2-1-0.3-1.4l-14.5,3.2l-0.1-0.4L138.7,443z"/>
	<path class="st0" d="M140,442.8c0.5,2.3,1.2,5.9,3.4,9.6c5.1,1.2,9.9,2.7,17.8-0.1l13.7-4.8v-0.1c-0.3-0.8-0.5-1.6-0.8-2.4l0,0l0,0
		l0,0c-0.2-0.8-0.5-1.6-0.7-2.4l-0.1-0.2c-0.2-0.8-0.4-1.5-0.6-2.3l-0.1-0.3c-0.2-0.7-0.4-1.5-0.6-2.2l-0.1-0.5
		c-0.1-0.5-0.2-1-0.3-1.4l-14.5,3.2l-0.1-0.3L140,442.8z"/>
	<path class="st0" d="M141.3,442.5c0.5,2.1,1.3,5.6,3.6,9c6.5,0.7,12.6,1.8,21.7-1.3l8.4-2.9l0,0c-0.2-0.7-0.5-1.5-0.7-2.2l-0.1-0.2
		c-0.2-0.7-0.5-1.5-0.7-2.2l-0.1-0.4c-0.2-0.7-0.4-1.4-0.6-2.1l-0.1-0.5c-0.2-0.7-0.4-1.3-0.5-2l-0.2-0.6c-0.1-0.5-0.2-0.9-0.3-1.4
		l-14.5,3.2l-0.1-0.3L141.3,442.5z"/>
	<path class="st0" d="M142.6,442.3c0.4,2,1.3,5.2,3.7,8.4c7.8,0.3,15.2,0.8,25.5-2.5l3-1l0,0c-0.2-0.6-0.4-1.2-0.6-1.8l-0.2-0.6
		c-0.2-0.6-0.4-1.2-0.5-1.8c-0.1-0.2-0.1-0.5-0.2-0.7c-0.2-0.6-0.3-1.2-0.5-1.8l-0.2-0.6c-0.2-0.6-0.3-1.2-0.5-1.8
		c-0.1-0.2-0.1-0.5-0.2-0.7c-0.1-0.4-0.2-0.9-0.3-1.3l-14.5,3.2v-0.2L142.6,442.3z"/>
	<path class="st0" d="M143.9,442c0.4,1.9,1.4,4.8,3.9,7.8c8.4-0.2,16.6-0.2,26.9-3c-0.1-0.4-0.2-0.7-0.4-1.1
		c-0.1-0.4-0.3-0.9-0.4-1.3c-0.1-0.4-0.3-0.8-0.4-1.3c-0.1-0.4-0.2-0.8-0.3-1.2c-0.1-0.5-0.3-1-0.4-1.5c-0.1-0.3-0.2-0.6-0.2-0.9
		c-0.1-0.6-0.3-1.1-0.4-1.7c-0.1-0.3-0.1-0.6-0.2-0.9c-0.1-0.4-0.2-0.9-0.3-1.3l-14.5,3.2v-0.2L143.9,442z"/>
	<path class="st0" d="M145.2,441.8c0.4,1.7,1.5,4.5,4.1,7.2c8.1-0.5,16.1-0.9,25.2-2.9l-0.1-0.2c-0.2-0.6-0.4-1.2-0.5-1.8
		c-0.1-0.3-0.2-0.5-0.2-0.8c-0.1-0.5-0.3-1-0.4-1.5c-0.1-0.4-0.2-0.8-0.3-1.2c-0.1-0.4-0.2-0.8-0.3-1.1c-0.1-0.5-0.3-1-0.4-1.5
		c-0.1-0.3-0.2-0.7-0.3-1c-0.1-0.4-0.2-0.8-0.3-1.2l-14.5,3.2v-0.1L145.2,441.8z"/>
	<path class="st0" d="M146.5,441.5c0.3,1.6,1.6,4.1,4.2,6.6c7.7-0.8,15.3-1.4,23.4-3l-0.1-0.3c-0.2-0.7-0.4-1.5-0.7-2.2l-0.1-0.3
		c-0.2-0.7-0.4-1.4-0.6-2.2l-0.1-0.4c-0.2-0.7-0.3-1.3-0.5-2c-0.1-0.2-0.1-0.5-0.2-0.7c-0.1-0.5-0.2-0.9-0.3-1.4l-14.5,3.2v-0.1
		L146.5,441.5z"/>
	<path class="st0" d="M147.8,441.3c0.3,1.5,1.7,3.8,4.4,6c7.2-0.9,14.3-1.7,21.7-3l0,0c-0.1-0.3-0.2-0.6-0.3-1
		c-0.1-0.5-0.3-1-0.4-1.4c-0.1-0.4-0.2-0.8-0.3-1.2c-0.1-0.4-0.2-0.7-0.3-1.1c-0.1-0.5-0.3-1-0.4-1.4c-0.1-0.3-0.2-0.7-0.3-1
		c-0.1-0.4-0.2-0.8-0.3-1.2l-14.5,3.2l0,0L147.8,441.3z"/>
	<path class="st0" d="M149.1,441c0.2,1.3,1.8,3.4,4.6,5.4c6.6-1,13.2-1.9,19.9-3.1c-0.1-0.5-0.3-0.9-0.4-1.4v-0.1
		c-0.1-0.4-0.2-0.8-0.3-1.1c-0.1-0.4-0.2-0.8-0.3-1.3c-0.1-0.4-0.2-0.9-0.3-1.3s-0.2-0.8-0.3-1.2c-0.1-0.4-0.2-0.7-0.3-1.1
		l-11.3,2.5L149.1,441z"/>
	<path class="st0" d="M150.4,440.7c0.2,1.2,1.8,3.1,4.7,4.8c6.1-1,12.1-2,18.2-3.1c-0.2-0.8-0.4-1.5-0.7-2.3l-0.1-0.2
		c-0.2-0.7-0.3-1.3-0.5-2c-0.1-0.3-0.2-0.6-0.2-0.9c-0.1-0.4-0.2-0.8-0.3-1.2l-7.7,1.7L150.4,440.7z"/>
	<path class="st0" d="M151.8,440.5c0.2,1,1.9,2.7,4.9,4.2c5.5-1,11-2,16.5-3c-0.1-0.3-0.2-0.7-0.3-1c-0.1-0.4-0.2-0.8-0.3-1.2l0,0
		v-0.1c-0.1-0.4-0.2-0.7-0.3-1.1l0,0v-0.1c-0.1-0.4-0.2-0.8-0.3-1.3c-0.1-0.3-0.2-0.7-0.3-1l-4.2,0.9L151.8,440.5z"/>
	<path class="st0" d="M153.1,440.2c0.1,0.9,2,2.3,5.1,3.6c4.9-1,9.9-1.9,14.8-2.9v-0.1c-0.1-0.5-0.3-1-0.4-1.5
		c-0.1-0.3-0.2-0.6-0.2-0.9l0,0v-0.1v-0.1c-0.1-0.5-0.2-0.9-0.3-1.4v-0.1v-0.1c-0.1-0.3-0.1-0.6-0.2-0.9l-1.1,0.3L153.1,440.2z"/>
	<path class="st0" d="M154.4,440c0.1,0.8,2.1,2,5.2,3c4.4-0.9,8.8-1.8,13.2-2.7l-0.1-0.4c-0.2-0.6-0.3-1.2-0.5-1.8V438l0,0
		c-0.1-0.4-0.2-0.8-0.3-1.2c-0.1-0.3-0.2-0.7-0.2-1L154.4,440z"/>
	<path class="st0" d="M155.7,439.7c0,0.6,2.2,1.6,5.4,2.4c3.8-0.8,7.7-1.6,11.5-2.5c-0.1-0.5-0.3-1.1-0.4-1.6l0,0v-0.1l0,0
		c-0.1-0.4-0.2-0.8-0.3-1.2v-0.1l-0.2-0.8l0,0L155.7,439.7z"/>
	<path class="st0" d="M157,439.5c0,0.5,2.3,1.3,5.6,1.8c3.3-0.7,6.6-1.5,9.9-2.2l0,0c-0.1-0.2-0.1-0.5-0.2-0.7l0,0l0,0
		c-0.2-0.6-0.3-1.2-0.5-1.9l0,0l0,0l0,0l-0.1-0.4l0,0L157,439.5z"/>
	<path class="st0" d="M158.3,439.2c0,0.4,2.4,0.9,5.8,1.2l8.3-1.9l0,0l0,0l0,0l0,0l0,0l0,0l0,0c-0.1-0.6-0.3-1.1-0.4-1.7l0,0l0,0
		l0,0l0,0l0,0v-0.1l0,0l-0.1-0.3l0,0L158.3,439.2z"/>
	<path class="st0" d="M159.6,439c-0.1,0.2,2.4,0.6,5.9,0.6l6.7-1.6l0,0l0,0c-0.1-0.4-0.2-0.7-0.3-1.1l0,0v-0.1l0,0l-0.2-0.7
		L159.6,439z"/>
	<path class="st0" d="M160.9,438.7c-0.1,0.1,2.5,0.2,6.1,0l5.1-1.2c-0.1-0.5-0.2-0.9-0.3-1.4l0,0L160.9,438.7z"/>
	<path class="st0" d="M162.2,438.5c-0.2,0,2.6-0.2,6.3-0.6l3.5-0.9c-0.1-0.3-0.1-0.5-0.2-0.8l0,0l0,0l0,0L162.2,438.5z"/>
</g>
<path class="st1" d="M163.5,438.2c-0.2-0.2,2.7-0.5,6.4-1.2l86.9-22.1l0.3-0.2H257L163.5,438.2z"/>
<linearGradient id="SVGID_1_" gradientUnits="userSpaceOnUse" x1="234.3766" y1="363.8762" x2="238.9576" y2="378.86" gradientTransform="matrix(1 0 0 1 0 50)">
	<stop  offset="0" style="stop-color:#D6D9DB"/>
	<stop  offset="1" style="stop-color:#FFFFFF"/>
</linearGradient>
<path class="st2" d="M286.5,538.3c-56.7-6.4-102.6-48.8-115-103.4l130.3-28.4L286.5,538.3z"/>
<ellipse class="st0" cx="211.1" cy="469.2" rx="7.9" ry="7.9"/>
<text transform="matrix(1 0 0 1 207.3367 473.5948)" class="st3 st4 st5">5</text>
<text transform="matrix(1 0 0 1 222.3347 471.9244)" class="st6 st7 st8">MOVEMENT</text>
<g>
	<g>
		<path class="st9" d="M446.3,161.7h2.5V161H447v-7.3h-0.7V161.7z M441.4,161.8c0.9,0,1.4-0.6,1.4-1.8v-6.3h-0.7v6.2
			c0,0.9-0.2,1.2-0.7,1.2s-0.7-0.3-0.7-1.2v-6.2H440v6.3C440,161.2,440.5,161.8,441.4,161.8z M435.2,161.1c-0.6,0-0.8-0.8-0.8-3.4
			c0-2.7,0.2-3.4,0.8-3.4c0.6,0,0.8,0.8,0.8,3.4C436,160.4,435.8,161.1,435.2,161.1z M435.2,161.8c1.2,0,1.5-1,1.5-4.1
			s-0.4-4.1-1.5-4.1c-1.2,0-1.5,1-1.5,4.1S434,161.8,435.2,161.8z M429.2,161.8c0.9,0,1.4-0.6,1.4-2c0-1-0.3-1.7-1.1-2.5
			c-0.7-0.7-0.9-1.2-0.9-2c0-0.7,0.2-1,0.6-1s0.6,0.4,0.7,1.4h0.7c-0.1-1.4-0.5-2.1-1.3-2.1c-0.9,0-1.3,0.6-1.3,1.7
			c0,1,0.3,1.7,1.1,2.5c0.7,0.7,0.9,1.2,0.9,2c0,0.9-0.2,1.3-0.7,1.3s-0.7-0.5-0.8-1.7h-0.7C427.8,161.1,428.2,161.8,429.2,161.8z"
			/>
		<path class="st9" d="M488.7,161.7h2.5V161h-1.9v-3.2h1.6v-0.6h-1.6v-2.8h1.9v-0.6h-2.5V161.7z M483.4,161h-0.3v-6.7h0.3
			c0.9,0,1.3,0.9,1.3,3.3S484.3,161,483.4,161z M483.4,153.7h-1v8h1c1.4,0,1.9-1.2,1.9-4C485.4,154.9,484.8,153.7,483.4,153.7z
			 M477.6,161.1c-0.6,0-0.8-0.8-0.8-3.4c0-2.7,0.2-3.4,0.8-3.4s0.8,0.8,0.8,3.4C478.4,160.4,478.2,161.1,477.6,161.1z M477.6,161.8
			c1.2,0,1.5-1,1.5-4.1s-0.4-4.1-1.5-4.1c-1.2,0-1.5,1-1.5,4.1S476.4,161.8,477.6,161.8z M470.7,161v-3.2h0.3c0.9,0,1.2,0.4,1.2,1.6
			c0,1.2-0.3,1.6-1.1,1.6L470.7,161L470.7,161z M470.7,157.1v-2.8h0.3c0.8,0,1.1,0.4,1.1,1.4s-0.3,1.4-1.2,1.4L470.7,157.1
			L470.7,157.1z M470,161.7h1.1c1.2,0,1.8-0.7,1.8-2.2c0-1.1-0.3-1.8-1.1-2l0,0c0.7-0.2,1-0.8,1-1.7c0-1.3-0.6-2-1.8-2h-1V161.7z"/>
		<path class="st9" d="M466.4,161.7c-0.2,0-0.4,0-0.6,0c0-0.9,0-1.7,0-2.6c-4.4,0-8.7,0-13.1,0c0,0.9,0,1.7,0,2.6
			c-0.2,0-0.4,0-0.6,0c0,0,0-1.7,0-2.6c0-0.8,0-2,0-3.5c2.3-2.7,4.6-5.5,7-8.2c0.1,0.1,0.2,0.2,0.3,0.3c0.9,0.9,1.7,1.8,2.6,2.7
			c1.2,1.2,2.4,2.5,3.6,3.7c0.3,0.3,0.6,0.6,0.9,0.9C466.4,157.2,466.4,159.4,466.4,161.7z M454.4,158.5c3.8,0,7.6,0,11.4,0
			c0-0.3,0-0.6,0-0.9c-0.5-0.6-5.5-5.8-5.6-5.9C458.2,153.9,456.3,156.2,454.4,158.5z M452.7,157.1c2.1-2.5,4.2-5,6.4-7.5
			c1.1,1.2,2.2,2.3,3.4,3.5c1.1,1.2,2.2,2.3,3.4,3.5c0-0.5,0-0.9,0-1.3c-2.2-2.3-4.5-4.7-6.7-7c-2.1,2.5-4.3,5-6.4,7.5
			C452.7,156.2,452.7,156.6,452.7,157.1z M453.5,158.5c0.5-0.6,6.1-7.2,6.2-7.3c-0.2-0.2-0.4-0.4-0.6-0.7c-2.1,2.5-4.3,5-6.4,7.5
			c0,0.2,0,0.3,0,0.4C453,158.5,453.3,158.5,453.5,158.5z"/>
	</g>
	<text transform="matrix(1.142 0 0 1 433.0928 169.0039)" class="st9 st10 st11">A HOME FOR THE SOUL</text>
	<text transform="matrix(1.142 0 0 1 433.0928 169.0039)" class="st12 st10 st11">A HOME FOR THE SOUL</text>
</g>
</svg>
