<?xml version="1.0" encoding="utf-8"?>
<!-- Generator: Adobe Illustrator 24.1.0, SVG Export Plug-In . SVG Version: 6.00 Build 0)  -->
<svg version="1.1" id="_x2014_ÎÓÈ_x5F_1" xmlns="http://www.w3.org/2000/svg" xmlns:xlink="http://www.w3.org/1999/xlink"
	 x="0px" y="0px" viewBox="0 0 595 842" style="enable-background:new 0 0 595 842;" xml:space="preserve">
<style type="text/css">
	.st0{fill-rule:evenodd;clip-rule:evenodd;fill:#F5E0CE;}
	.st1{fill-rule:evenodd;clip-rule:evenodd;fill:#136567;}
	.st2{fill-rule:evenodd;clip-rule:evenodd;fill:url(#SVGID_1_);}
	.st3{fill-rule:evenodd;clip-rule:evenodd;fill:url(#SVGID_2_);}
	.st4{fill:#69625A;}
	.st5{font-family:'BrixtonBook';}
	.st6{font-size:3.6227px;}
	.st7{fill:none;stroke:#69625A;stroke-width:0.25;stroke-miterlimit:10;}
</style>
<path class="st0" d="M319.1,567.9c-5.7,0.6-11.5,0.9-17.4,0.9c-6.4,0-12.7-0.4-18.9-1.1l4.1-34.6c4.9,0.6,9.8,0.9,14.8,0.9
	c4.6,0,9.2-0.3,13.7-0.7L319.1,567.9z"/>
<path class="st0" d="M319,567.3c-2.6,0.3-6.4,1.1-11.1,1.2c-4.5,0.1-6.1-0.4-5.8-6l-1.8-157.9l0.1-0.3l0,0L319,567.3z"/>
<g>
	<path class="st0" d="M318.8,565.2c-2.5,0.3-6.1,0.9-10.6,0.8c-4.3-1-6-2.6-5.8-9c-0.6-50.1-1.2-100.3-1.8-150.4
		c0-0.1,0-0.2,0.1-0.3c0.1,0.6,0.1,1.2,0.2,1.8C306.8,460.4,312.8,512.8,318.8,565.2z"/>
	<path class="st0" d="M318.5,563c-2.3,0.3-5.8,0.7-10.1,0.4c-4.2-2.1-5.9-4.7-5.9-11.9c-0.6-47.6-1.1-95.3-1.7-142.9
		c0-0.1,0-0.2,0.1-0.3c0.1,1.2,0.3,2.4,0.4,3.6C307,462.3,312.8,512.6,318.5,563z"/>
	<path class="st0" d="M318.2,560.8c-2.2,0.3-5.5,0.6-9.6,0.1c-4.1-3.2-5.8-6.8-5.9-14.9c-0.5-45.1-1-90.3-1.6-135.4
		c0-0.1,0-0.2,0.1-0.3c0.2,1.8,0.4,3.6,0.5,5.4C307.2,464.1,312.7,512.4,318.2,560.8z"/>
	<path class="st0" d="M317.9,558.6c-2,0.3-5.3,0.4-9.1-0.3c-4-4.3-5.7-9-5.9-17.8c-0.5-42.6-1-85.3-1.5-127.9c0-0.1,0-0.2,0.1-0.2
		c0.2,2.4,0.5,4.8,0.7,7.1C307.4,465.9,312.7,512.3,317.9,558.6z"/>
	<path class="st0" d="M317.7,556.5c-1.9,0.3-5,0.2-8.7-0.6c-3.9-5.3-5.6-11.1-6-20.8c-0.5-40.1-0.9-80.3-1.4-120.4
		c0-0.1,0-0.1,0.1-0.2c0.3,3,0.6,5.9,0.9,8.9C307.6,467.7,312.6,512.1,317.7,556.5z"/>
	<path class="st0" d="M317.4,554.3c-1.8,0.2-4.7,0-8.2-1c-3.8-6.4-5.5-13.2-6-23.7c-0.4-37.6-0.9-75.3-1.3-112.9
		c0-0.1,0-0.1,0.1-0.2c0.4,3.6,0.7,7.1,1.1,10.7C307.8,469.5,312.6,511.9,317.4,554.3z"/>
	<path class="st0" d="M317.1,552.1c-1.6,0.2-4.4-0.2-7.7-1.4c-3.7-7.5-5.5-15.4-6-26.6c-0.4-35.1-0.8-70.3-1.2-105.4
		c0-0.1,0-0.1,0.1-0.2c0.4,4.2,0.8,8.3,1.2,12.5C308,471.4,312.6,511.7,317.1,552.1z"/>
	<path class="st0" d="M316.8,549.9c-1.5,0.2-4.1-0.3-7.2-1.7c-3.6-8.6-5.4-17.5-6-29.6c-0.4-32.6-0.7-65.3-1.1-97.9
		c0-0.1,0-0.1,0.1-0.2c0.5,4.7,0.9,9.5,1.4,14.2C308.2,473.2,312.5,511.5,316.8,549.9z"/>
	<path class="st0" d="M316.5,547.8c-1.4,0.2-3.8-0.5-6.8-2.1c-3.5-9.7-5.3-19.6-6.1-32.5c-0.3-30.1-0.7-60.3-1-90.4
		c0-0.1,0-0.1,0.1-0.2c0.5,5.3,1.1,10.7,1.6,16C308.4,475,312.5,511.4,316.5,547.8z"/>
	<path class="st0" d="M316.3,545.6c-1.2,0.2-3.6-0.7-6.3-2.5c-3.3-10.7-5.2-21.8-6.1-35.5c-0.3-27.6-0.6-55.2-0.9-82.9
		c0,0,0-0.1,0.1-0.1c0.6,5.9,1.2,11.9,1.8,17.8C308.6,476.8,312.4,511.2,316.3,545.6z"/>
	<path class="st0" d="M316,543.4c-1.1,0.2-3.3-0.9-5.8-2.8c-3.2-11.8-5.1-23.9-6.1-38.4c-0.3-25.1-0.6-50.2-0.8-75.4
		c0,0,0-0.1,0.1-0.1c0.6,6.5,1.3,13,1.9,19.6C308.8,478.6,312.4,511,316,543.4z"/>
	<path class="st0" d="M315.7,541.2c-1,0.2-3-1.1-5.3-3.2c-3.1-12.9-5-26-6.1-41.4c-0.2-22.6-0.5-45.2-0.7-67.9v-0.1
		c0.7,7.1,1.4,14.2,2.1,21.3C309,480.4,312.4,510.8,315.7,541.2z"/>
	<path class="st0" d="M315.4,539.1c-0.8,0.2-2.7-1.3-4.9-3.6c-3-14-4.9-28.2-6.2-44.3c-0.2-20.1-0.4-40.2-0.7-60.4v-0.1
		c0.8,7.7,1.5,15.4,2.3,23.1C309.2,482.3,312.3,510.7,315.4,539.1z"/>
	<path class="st0" d="M315.2,536.9c-0.7,0.2-2.4-1.4-4.4-3.9c-2.9-15.1-4.9-30.3-6.2-47.2c-0.2-17.6-0.4-35.2-0.6-52.8
		c0,0,0,0,0-0.1c0.8,8.3,1.6,16.6,2.4,24.9C309.4,484.1,312.3,510.5,315.2,536.9z"/>
	<path class="st0" d="M314.9,534.7c-0.6,0.2-2.1-1.6-3.9-4.3c-2.8-16.1-4.8-32.4-6.2-50.2c-0.2-15.1-0.3-30.2-0.5-45.3
		c0,0,0,0,0-0.1c0.9,8.9,1.7,17.8,2.6,26.6C309.6,485.9,312.2,510.3,314.9,534.7z"/>
	<path class="st0" d="M314.6,532.5c-0.4,0.2-1.9-1.8-3.4-4.7c-2.7-17.2-4.7-34.6-6.2-53.1c-0.1-12.6-0.3-25.2-0.4-37.8l0,0
		c0.9,9.5,1.9,18.9,2.8,28.4C309.8,487.7,312.2,510.1,314.6,532.5z"/>
	<path class="st0" d="M314.3,530.3c-0.3,0.2-1.6-2-2.9-5c-2.6-18.3-4.6-36.7-6.3-56.1c-0.1-10.1-0.2-20.2-0.3-30.3l0,0
		c1,10.1,2,20.1,3,30.2C310,489.5,312.2,509.9,314.3,530.3z"/>
	<path class="st0" d="M314.1,528.2c-0.2,0.2-1.3-2.2-2.5-5.4c-2.5-19.4-4.5-38.8-6.3-59c-0.1-7.6-0.1-15.2-0.2-22.8l0,0
		c1,10.7,2.1,21.3,3.1,32C310.2,491.3,312.1,509.8,314.1,528.2z"/>
	<path class="st0" d="M313.8,526c0,0.2-1-2.3-2-5.7c-2.3-20.5-4.4-41-6.3-62c0-5.1-0.1-10.2-0.1-15.3l0,0
		c1.1,11.2,2.2,22.5,3.3,33.7C310.4,493.2,312.1,509.6,313.8,526z"/>
	<path class="st0" d="M313.5,523.8c0.1,0.1-0.7-2.5-1.5-6.1c-2.2-21.5-4.3-43.1-6.3-64.9c0-2.6,0-5.2,0-7.8l0,0
		c1.2,11.8,2.3,23.7,3.5,35.5C310.6,495,312,509.4,313.5,523.8z"/>
</g>
<path class="st1" d="M313.2,521.6c0.2,0.1-0.4-2.7-1-6.5l-6.4-67.8l0.1-0.3l0,0L313.2,521.6z"/>
<linearGradient id="SVGID_1_" gradientUnits="userSpaceOnUse" x1="288.1062" y1="419.7612" x2="300.0873" y2="420.1797" gradientTransform="matrix(1 0 0 1 0 50)">
	<stop  offset="0" style="stop-color:#D6D9DB"/>
	<stop  offset="1" style="stop-color:#FFFFFF"/>
</linearGradient>
<path class="st2" d="M315.4,533.2c-4.5,0.5-9.1,0.7-13.7,0.7c-5,0-9.9-0.3-14.8-0.9l14.9-126.5L315.4,533.2z"/>
<linearGradient id="SVGID_2_" gradientUnits="userSpaceOnUse" x1="310.0913" y1="419.9246" x2="303.9765" y2="420.3522" gradientTransform="matrix(1 0 0 1 0 50)">
	<stop  offset="0" style="stop-color:#D6D9DB"/>
	<stop  offset="1" style="stop-color:#FFFFFF"/>
</linearGradient>
<path class="st3" d="M315.3,533.2c-2.9,0.3-5.8,0.5-8.6,0.6l-5-127L315.3,533.2z"/>
<g>
	<g>
		<path class="st4" d="M446.3,161.7h2.5V161H447v-7.3h-0.7V161.7z M441.4,161.8c0.9,0,1.4-0.6,1.4-1.8v-6.3h-0.7v6.2
			c0,0.9-0.2,1.2-0.7,1.2s-0.7-0.3-0.7-1.2v-6.2H440v6.3C440,161.2,440.5,161.8,441.4,161.8z M435.2,161.1c-0.6,0-0.8-0.8-0.8-3.4
			c0-2.7,0.2-3.4,0.8-3.4c0.6,0,0.8,0.8,0.8,3.4C436,160.4,435.8,161.1,435.2,161.1z M435.2,161.8c1.2,0,1.5-1,1.5-4.1
			s-0.4-4.1-1.5-4.1c-1.2,0-1.5,1-1.5,4.1S434,161.8,435.2,161.8z M429.2,161.8c0.9,0,1.4-0.6,1.4-2c0-1-0.3-1.7-1.1-2.5
			c-0.7-0.7-0.9-1.2-0.9-2c0-0.7,0.2-1,0.6-1s0.6,0.4,0.7,1.4h0.7c-0.1-1.4-0.5-2.1-1.3-2.1c-0.9,0-1.3,0.6-1.3,1.7
			c0,1,0.3,1.7,1.1,2.5c0.7,0.7,0.9,1.2,0.9,2c0,0.9-0.2,1.3-0.7,1.3s-0.7-0.5-0.8-1.7h-0.7C427.8,161.1,428.2,161.8,429.2,161.8z"
			/>
		<path class="st4" d="M488.7,161.7h2.5V161h-1.9v-3.2h1.6v-0.6h-1.6v-2.8h1.9v-0.6h-2.5V161.7z M483.4,161h-0.3v-6.7h0.3
			c0.9,0,1.3,0.9,1.3,3.3S484.3,161,483.4,161z M483.4,153.7h-1v8h1c1.4,0,1.9-1.2,1.9-4C485.4,154.9,484.8,153.7,483.4,153.7z
			 M477.6,161.1c-0.6,0-0.8-0.8-0.8-3.4c0-2.7,0.2-3.4,0.8-3.4s0.8,0.8,0.8,3.4C478.4,160.4,478.2,161.1,477.6,161.1z M477.6,161.8
			c1.2,0,1.5-1,1.5-4.1s-0.4-4.1-1.5-4.1c-1.2,0-1.5,1-1.5,4.1S476.4,161.8,477.6,161.8z M470.7,161v-3.2h0.3c0.9,0,1.2,0.4,1.2,1.6
			c0,1.2-0.3,1.6-1.1,1.6L470.7,161L470.7,161z M470.7,157.1v-2.8h0.3c0.8,0,1.1,0.4,1.1,1.4s-0.3,1.4-1.2,1.4L470.7,157.1
			L470.7,157.1z M470,161.7h1.1c1.2,0,1.8-0.7,1.8-2.2c0-1.1-0.3-1.8-1.1-2l0,0c0.7-0.2,1-0.8,1-1.7c0-1.3-0.6-2-1.8-2h-1V161.7z"/>
		<path class="st4" d="M466.4,161.7c-0.2,0-0.4,0-0.6,0c0-0.9,0-1.7,0-2.6c-4.4,0-8.7,0-13.1,0c0,0.9,0,1.7,0,2.6
			c-0.2,0-0.4,0-0.6,0c0,0,0-1.7,0-2.6c0-0.8,0-2,0-3.5c2.3-2.7,4.6-5.5,7-8.2c0.1,0.1,0.2,0.2,0.3,0.3c0.9,0.9,1.7,1.8,2.6,2.7
			c1.2,1.2,2.4,2.5,3.6,3.7c0.3,0.3,0.6,0.6,0.9,0.9C466.4,157.2,466.4,159.4,466.4,161.7z M454.4,158.5c3.8,0,7.6,0,11.4,0
			c0-0.3,0-0.6,0-0.9c-0.5-0.6-5.5-5.8-5.6-5.9C458.2,153.9,456.3,156.2,454.4,158.5z M452.7,157.1c2.1-2.5,4.2-5,6.4-7.5
			c1.1,1.2,2.2,2.3,3.4,3.5c1.1,1.2,2.2,2.3,3.4,3.5c0-0.5,0-0.9,0-1.3c-2.2-2.3-4.5-4.7-6.7-7c-2.1,2.5-4.3,5-6.4,7.5
			C452.7,156.2,452.7,156.6,452.7,157.1z M453.5,158.5c0.5-0.6,6.1-7.2,6.2-7.3c-0.2-0.2-0.4-0.4-0.6-0.7c-2.1,2.5-4.3,5-6.4,7.5
			c0,0.2,0,0.3,0,0.4C453,158.5,453.3,158.5,453.5,158.5z"/>
	</g>
	<text transform="matrix(1.142 0 0 1 433.0928 169.0039)" class="st4 st5 st6">A HOME FOR THE SOUL</text>
	<text transform="matrix(1.142 0 0 1 433.0928 169.0039)" class="st7 st5 st6">A HOME FOR THE SOUL</text>
</g>
</svg>
