<svg id="_ÎÓÈ_1" data-name="—ÎÓÈ_1" xmlns="http://www.w3.org/2000/svg" xmlns:xlink="http://www.w3.org/1999/xlink" viewBox="0 0 595 842"><defs><style>.cls-1{fill:#9eacae;}.cls-1,.cls-10,.cls-11,.cls-12,.cls-13,.cls-14,.cls-15,.cls-16,.cls-17,.cls-18,.cls-2,.cls-20,.cls-21,.cls-22,.cls-3,.cls-4,.cls-5,.cls-6,.cls-7,.cls-8,.cls-9{fill-rule:evenodd;}.cls-2{fill:#b0b6ba;}.cls-3{fill:#4f6130;}.cls-19,.cls-31,.cls-4{fill:#3f2f2d;}.cls-29,.cls-5{fill:#e5e3dc;}.cls-6{fill:#f5e0ce;}.cls-32,.cls-34,.cls-35,.cls-7{fill:#69625a;}.cls-8{fill:#136567;}.cls-9{fill:#ac5330;}.cls-10{fill:url(#linear-gradient);}.cls-11{fill:url(#linear-gradient-2);}.cls-12,.cls-25,.cls-26{fill:#fff;}.cls-13{fill:url(#linear-gradient-3);}.cls-14{fill:url(#linear-gradient-4);}.cls-15{fill:url(#linear-gradient-5);}.cls-16{fill:#f5f4f1;}.cls-17{fill:#f5f4f0;}.cls-18{fill:url(#linear-gradient-6);}.cls-20{fill:url(#linear-gradient-7);}.cls-21{fill:url(#linear-gradient-8);}.cls-22{fill:url(#linear-gradient-9);}.cls-23,.cls-25,.cls-26,.cls-31,.cls-32,.cls-33,.cls-35,.cls-36,.cls-37{isolation:isolate;}.cls-23{font-size:8px;fill:#5e7b38;font-family:Cocogoose;}.cls-24{letter-spacing:-0.04em;}.cls-25{font-size:12px;}.cls-25,.cls-26{font-family:Renogare-Regular, Renogare;}.cls-26{font-size:10.25px;}.cls-27{letter-spacing:-0.03em;}.cls-28{letter-spacing:-0.05em;}.cls-30,.cls-33,.cls-36{fill:none;}.cls-31{font-size:22px;font-family:Bebas-Regular, Bebas;}.cls-32,.cls-33{font-size:18px;font-family:AmalfiCoast, Amalfi Coast;}.cls-33,.cls-36{stroke:#69625a;stroke-miterlimit:10;}.cls-33{stroke-width:0.5px;}.cls-35,.cls-36{font-size:3.62px;font-family:BrixtonBook, Brixton;}.cls-36{stroke-width:0.25px;}</style><linearGradient id="linear-gradient" x1="317.88" y1="441.65" x2="329.24" y2="449.91" gradientTransform="matrix(1, 0, 0, -1, 0, 892)" gradientUnits="userSpaceOnUse"><stop offset="0" stop-color="#d6d9db"/><stop offset="1" stop-color="#fff"/></linearGradient><linearGradient id="linear-gradient-2" x1="313.15" y1="534.84" x2="323.61" y2="529.74" xlink:href="#linear-gradient"/><linearGradient id="linear-gradient-3" x1="238.93" y1="511.13" x2="242.98" y2="518.75" xlink:href="#linear-gradient"/><linearGradient id="linear-gradient-4" x1="259.74" y1="540.55" x2="250.49" y2="529.52" xlink:href="#linear-gradient"/><linearGradient id="linear-gradient-5" x1="234.38" y1="478.12" x2="238.96" y2="463.14" xlink:href="#linear-gradient"/><linearGradient id="linear-gradient-6" x1="288.11" y1="422.24" x2="300.09" y2="421.82" xlink:href="#linear-gradient"/><linearGradient id="linear-gradient-7" x1="310.09" y1="422.08" x2="303.98" y2="421.65" xlink:href="#linear-gradient"/><linearGradient id="linear-gradient-8" x1="343.72" y1="467.48" x2="338.61" y2="459.61" xlink:href="#linear-gradient"/><linearGradient id="linear-gradient-9" x1="346.23" y1="511.17" x2="336.24" y2="521.51" xlink:href="#linear-gradient"/></defs><path class="cls-1" d="M291.8,413.5c-5.9-4.2,13.9-12,17.8-21.4C303.9,397.1,298.5,418.3,291.8,413.5Z"/><path class="cls-2" d="M303.1,487.9c-2.6,1.2-.5,1.4-7.4,1.2l-3.4-81.3Z"/><path class="cls-2" d="M351.2,429c-4,6.3-6.1,8.5-9.3,10.8L297,393.4Z"/><path class="cls-2" d="M323.7,471.1c-12.1,7.3-1.1,4.1-5.9,5.7l-31.5-84.4Z"/><path class="cls-2" d="M164.1,386.9c3.6-31.1,99.3,8.6,116.8,13.2C255.1,400.1,160,422.1,164.1,386.9Z"/><path class="cls-2" d="M215.5,328.2c6.7-12.5,4.6-8.6,15.3-17.6L307.5,391Z"/><path class="cls-3" d="M386.9,570.7c-.6.3-1.2.7-1.8,1a184,184,0,0,1-55.2,17.7l-4,.6c-4.3.7-4.8-2.3-5.3-7.2l-3.2-30.1a146.32,146.32,0,0,0,53.7-16.5l16.6,31C388.6,568.7,388.8,569.6,386.9,570.7Z"/><path class="cls-4" d="M276.2,578.6c-1.4-.2-2.8-.4-4.3-.7C200.1,565.5,148.7,511.1,136,443.2l35.5-7.8a133.65,133.65,0,0,0,115,102.9l-4.1,35.4C282,578.6,281.2,579.2,276.2,578.6Z"/><path class="cls-5" d="M154.3,337.4a162,162,0,0,1,36.1-49.7L301.8,406.6Z"/><path class="cls-6" d="M319.1,567.9a166.12,166.12,0,0,1-17.4.9,168.3,168.3,0,0,1-18.9-1.1l4.1-34.6a121.25,121.25,0,0,0,14.8.9c4.6,0,9.2-.3,13.7-.7Z"/><path class="cls-5" d="M408.7,463.2a122,122,0,0,1-49.9,50l-14.7-27.4a91.06,91.06,0,0,0,37.3-37Z"/><path class="cls-7" d="M301.7,220.8a184.5,184.5,0,0,1,46.7,6c1.4.4,2.8.8,4.2,1.1,2,.5,3.3,1.6,2,4.8L345,264.3a148,148,0,0,0-144.9,33.8l-21.4-22.8c-3.5-4.1-3.2-5.1,1.3-9.1A183.87,183.87,0,0,1,301.7,220.8Z"/><path class="cls-5" d="M340.7,278.6A133.32,133.32,0,0,1,403,319.5l-26.6,22.9a97.17,97.17,0,0,0-45.9-30.3Z"/><path class="cls-5" d="M379.2,297.6l-20.3,28.5A100,100,0,0,0,330.6,312l10.2-33.4.6.2,1,.3A138.2,138.2,0,0,1,379.2,297.6Z"/><path class="cls-5" d="M398.3,479.4l-24.7-18.7a94.83,94.83,0,0,0,7.8-12l-79-41.8h0l106.2,56.2A101.87,101.87,0,0,1,398.3,479.4Z"/><path class="cls-5" d="M358.4,512.8,304.9,412.5l39.3,73.3a93.42,93.42,0,0,0,12-7.6l18.5,24.3A139.41,139.41,0,0,1,358.4,512.8Z"/><path class="cls-6" d="M319,567.3a96.06,96.06,0,0,1-11.1,1.2c-4.5.1-6.1-.4-5.8-6l-1.8-157.9.1-.3h0Z"/><path class="cls-6" d="M318.8,565.2a67.35,67.35,0,0,1-10.6.8c-4.3-1-6-2.6-5.8-9q-.9-75.15-1.8-150.4a.37.37,0,0,1,.1-.3c.1.6.1,1.2.2,1.8Q309.75,486.55,318.8,565.2Z"/><path class="cls-6" d="M318.5,563a49.24,49.24,0,0,1-10.1.4c-4.2-2.1-5.9-4.7-5.9-11.9q-.9-71.4-1.7-142.9a.37.37,0,0,1,.1-.3c.1,1.2.3,2.4.4,3.6Q309.85,487.5,318.5,563Z"/><path class="cls-6" d="M318.2,560.8a36.82,36.82,0,0,1-9.6.1c-4.1-3.2-5.8-6.8-5.9-14.9q-.75-67.65-1.6-135.4a.37.37,0,0,1,.1-.3c.2,1.8.4,3.6.5,5.4Q310,488.3,318.2,560.8Z"/><path class="cls-6" d="M317.9,558.6a28.91,28.91,0,0,1-9.1-.3c-4-4.3-5.7-9-5.9-17.8q-.75-63.9-1.5-127.9c0-.1,0-.2.1-.2.2,2.4.5,4.8.7,7.1Q310,489.1,317.9,558.6Z"/><path class="cls-6" d="M317.7,556.5a25.56,25.56,0,0,1-8.7-.6c-3.9-5.3-5.6-11.1-6-20.8q-.75-60.15-1.4-120.4c0-.1,0-.1.1-.2.3,3,.6,5.9.9,8.9Q310.1,489.85,317.7,556.5Z"/><path class="cls-6" d="M317.4,554.3a22.64,22.64,0,0,1-8.2-1c-3.8-6.4-5.5-13.2-6-23.7-.4-37.6-.9-75.3-1.3-112.9,0-.1,0-.1.1-.2.4,3.6.7,7.1,1.1,10.7Q310.15,490.65,317.4,554.3Z"/><path class="cls-6" d="M317.1,552.1a18.59,18.59,0,0,1-7.7-1.4c-3.7-7.5-5.5-15.4-6-26.6-.4-35.1-.8-70.3-1.2-105.4,0-.1,0-.1.1-.2.4,4.2.8,8.3,1.2,12.5Q310.25,491.6,317.1,552.1Z"/><path class="cls-6" d="M316.8,549.9c-1.5.2-4.1-.3-7.2-1.7-3.6-8.6-5.4-17.5-6-29.6-.4-32.6-.7-65.3-1.1-97.9,0-.1,0-.1.1-.2.5,4.7.9,9.5,1.4,14.2C308.2,473.2,312.5,511.5,316.8,549.9Z"/><path class="cls-6" d="M316.5,547.8c-1.4.2-3.8-.5-6.8-2.1-3.5-9.7-5.3-19.6-6.1-32.5-.3-30.1-.7-60.3-1-90.4,0-.1,0-.1.1-.2.5,5.3,1.1,10.7,1.6,16Q310.45,493.2,316.5,547.8Z"/><path class="cls-6" d="M316.3,545.6c-1.2.2-3.6-.7-6.3-2.5-3.3-10.7-5.2-21.8-6.1-35.5q-.45-41.4-.9-82.9a.1.1,0,0,1,.1-.1c.6,5.9,1.2,11.9,1.8,17.8Q310.45,494,316.3,545.6Z"/><path class="cls-6" d="M316,543.4c-1.1.2-3.3-.9-5.8-2.8a194.19,194.19,0,0,1-6.1-38.4q-.45-37.65-.8-75.4a.1.1,0,0,1,.1-.1c.6,6.5,1.3,13,1.9,19.6Q310.55,494.75,316,543.4Z"/><path class="cls-6" d="M315.7,541.2c-1,.2-3-1.1-5.3-3.2a249.19,249.19,0,0,1-6.1-41.4c-.2-22.6-.5-45.2-.7-67.9v-.1l2.1,21.3C309,480.4,312.4,510.8,315.7,541.2Z"/><path class="cls-6" d="M315.4,539.1c-.8.2-2.7-1.3-4.9-3.6a337.82,337.82,0,0,1-6.2-44.3q-.3-30.15-.7-60.4v-.1c.8,7.7,1.5,15.4,2.3,23.1C309.2,482.3,312.3,510.7,315.4,539.1Z"/><path class="cls-6" d="M315.2,536.9c-.7.2-2.4-1.4-4.4-3.9a415,415,0,0,1-6.2-47.2L304,433v-.1l2.4,24.9Q310.9,497.25,315.2,536.9Z"/><path class="cls-6" d="M314.9,534.7c-.6.2-2.1-1.6-3.9-4.3-2.8-16.1-4.8-32.4-6.2-50.2-.2-15.1-.3-30.2-.5-45.3v-.1c.9,8.9,1.7,17.8,2.6,26.6C309.6,485.9,312.2,510.3,314.9,534.7Z"/><path class="cls-6" d="M314.6,532.5c-.4.2-1.9-1.8-3.4-4.7-2.7-17.2-4.7-34.6-6.2-53.1-.1-12.6-.3-25.2-.4-37.8h0c.9,9.5,1.9,18.9,2.8,28.4Z"/><path class="cls-6" d="M314.3,530.3c-.3.2-1.6-2-2.9-5-2.6-18.3-4.6-36.7-6.3-56.1l-.3-30.3h0c1,10.1,2,20.1,3,30.2Q311.1,499.7,314.3,530.3Z"/><path class="cls-6" d="M314.1,528.2c-.2.2-1.3-2.2-2.5-5.4-2.5-19.4-4.5-38.8-6.3-59-.1-7.6-.1-15.2-.2-22.8h0c1,10.7,2.1,21.3,3.1,32C310.2,491.3,312.1,509.8,314.1,528.2Z"/><path class="cls-6" d="M313.8,526a38.56,38.56,0,0,1-2-5.7c-2.3-20.5-4.4-41-6.3-62,0-5.1-.1-10.2-.1-15.3h0c1.1,11.2,2.2,22.5,3.3,33.7C310.4,493.2,312.1,509.6,313.8,526Z"/><path class="cls-6" d="M313.5,523.8c.1.1-.7-2.5-1.5-6.1q-3.3-32.25-6.3-64.9V445h0c1.2,11.8,2.3,23.7,3.5,35.5C310.6,495,312,509.4,313.5,523.8Z"/><path class="cls-8" d="M313.2,521.6c.2.1-.4-2.7-1-6.5l-6.4-67.8.1-.3h0Z"/><path class="cls-4" d="M280.8,575.9a85.17,85.17,0,0,1-11-1.3c-4.4-.9-5.8-1.8-4.4-7.2l6.8-31.5c4.3,1,8.6,1.7,13,2.3l-4.4,37.7ZM299.9,407l.6-2.7.1-.3v.1l-.3,2.9Z"/><path class="cls-4" d="M281.1,573.3a68.63,68.63,0,0,1-10.5-1.5c-4-1.9-5.3-3.8-3.7-10.1l5.5-25.7c4.2.9,8.4,1.7,12.8,2.2l-4.1,35.1Zm19-166.4.1-.7c0-.1.1-.2.1-.3l-.1.9Z"/><path class="cls-4" d="M281.4,570.7a50,50,0,0,1-9.9-1.8c-3.7-3-4.7-5.9-3.1-12.9l4.3-19.9c4.1.9,8.3,1.6,12.5,2.2Z"/><path class="cls-4" d="M281.7,568.1a41.85,41.85,0,0,1-9.4-2c-3.3-4-4.2-7.9-2.5-15.8l3-14.2a121.35,121.35,0,0,0,12.3,2.1Z"/><path class="cls-4" d="M282,565.5a32.22,32.22,0,0,1-8.9-2.3c-3-5-3.6-10-1.9-18.7l1.8-8.4a122.33,122.33,0,0,0,12.1,2.1Z"/><path class="cls-4" d="M282.4,562.9a27.07,27.07,0,0,1-8.3-2.5c-2.6-6.1-3.1-12.1-1.3-21.6l.6-2.6c3.9.8,7.9,1.5,11.9,2Z"/><path class="cls-4" d="M282.7,560.3a19.94,19.94,0,0,1-7.8-2.8c-2-6.3-2.4-12.6-1.2-21.2a110.28,110.28,0,0,0,11.5,1.9Z"/><path class="cls-4" d="M283,557.7c-1.7-.1-4.3-1.1-7.2-3a53.93,53.93,0,0,1-1.2-18.2c3.5.7,7.1,1.3,10.7,1.8Z"/><path class="cls-4" d="M283.3,555.1c-1.5-.1-4-1.2-6.7-3.3a68.6,68.6,0,0,1-1-15.2c3.2.6,6.4,1.1,9.7,1.5Z"/><path class="cls-4" d="M283.6,552.5c-1.4-.1-3.6-1.4-6.1-3.5a97.07,97.07,0,0,1-.7-12.1c2.8.5,5.6,1,8.5,1.3Z"/><path class="cls-4" d="M283.9,549.9c-1.3-.1-3.3-1.5-5.6-3.8-.2-3-.4-6-.4-9,2.4.4,4.9.8,7.4,1.1Z"/><path class="cls-4" d="M284.2,547.3c-1.1,0-3-1.6-5-4-.1-2-.1-4-.2-6q3.15.6,6.3.9Z"/><path class="cls-4" d="M284.6,544.7c-1,0-2.7-1.7-4.5-4.3v-3c1.8.3,3.5.5,5.3.8Z"/><path class="cls-4" d="M284.9,542.1c-.9,0-2.4-1.8-3.9-4.5l4.4.6Z"/><path class="cls-4" d="M285.2,539.5c-.4,0-1-.6-1.6-1.5a11,11,0,0,0,1.8.2Z"/><path class="cls-4" d="M136.1,443.5c.7,2.7.9,7,2.9,11.5,1.2,2.6,1.9,5.6,6.3,3.6l153.6-53.2.3-.2h-.1Z"/><path class="cls-4" d="M137.4,443.3c.6,2.6,1,6.6,3,10.9,2.5,2.2,4.6,4.7,10.2,2.4l24.5-8.5-.3-.9c-.2-.5-.3-1.1-.5-1.6l-.3-.9a15.43,15.43,0,0,1-.5-1.7l-.2-.7a13.32,13.32,0,0,1-.5-1.9l-.1-.5a16,16,0,0,1-.5-2.1l-.1-.4a8.33,8.33,0,0,0-.4-1.5l-14.5,3.2-.1-.4Z"/><path class="cls-4" d="M138.7,443c.6,2.4,1.1,6.3,3.2,10.3,3.8,1.7,7.2,3.7,14,1.1l19.1-6.6h0l-.2-.5c-.2-.7-.4-1.3-.6-2l-.1-.4-.6-2.1-.1-.4-.6-2.1-.1-.4-.6-2.1-.1-.5c-.1-.5-.2-1-.3-1.4l-14.5,3.2-.1-.4Z"/><path class="cls-4" d="M140,442.8a30.09,30.09,0,0,0,3.4,9.6c5.1,1.2,9.9,2.7,17.8-.1l13.7-4.8v-.1c-.3-.8-.5-1.6-.8-2.4h0c-.2-.8-.5-1.6-.7-2.4l-.1-.2c-.2-.8-.4-1.5-.6-2.3l-.1-.3c-.2-.7-.4-1.5-.6-2.2l-.1-.5c-.1-.5-.2-1-.3-1.4l-14.5,3.2-.1-.3Z"/><path class="cls-4" d="M141.3,442.5a26,26,0,0,0,3.6,9c6.5.7,12.6,1.8,21.7-1.3l8.4-2.9h0c-.2-.7-.5-1.5-.7-2.2l-.1-.2c-.2-.7-.5-1.5-.7-2.2l-.1-.4-.6-2.1-.1-.5a14.62,14.62,0,0,1-.5-2l-.2-.6c-.1-.5-.2-.9-.3-1.4l-14.5,3.2-.1-.3Z"/><path class="cls-4" d="M142.6,442.3a20.62,20.62,0,0,0,3.7,8.4c7.8.3,15.2.8,25.5-2.5l3-1h0l-.6-1.8-.2-.6a12.09,12.09,0,0,1-.5-1.8c-.1-.2-.1-.5-.2-.7-.2-.6-.3-1.2-.5-1.8l-.2-.6c-.2-.6-.3-1.2-.5-1.8-.1-.2-.1-.5-.2-.7-.1-.4-.2-.9-.3-1.3l-14.5,3.2v-.2Z"/><path class="cls-4" d="M143.9,442a18.06,18.06,0,0,0,3.9,7.8c8.4-.2,16.6-.2,26.9-3a4.87,4.87,0,0,0-.4-1.1c-.1-.4-.3-.9-.4-1.3s-.3-.8-.4-1.3l-.3-1.2c-.1-.5-.3-1-.4-1.5a2.92,2.92,0,0,1-.2-.9c-.1-.6-.3-1.1-.4-1.7-.1-.3-.1-.6-.2-.9s-.2-.9-.3-1.3l-14.5,3.2v-.2Z"/><path class="cls-4" d="M145.2,441.8a15.93,15.93,0,0,0,4.1,7.2c8.1-.5,16.1-.9,25.2-2.9l-.1-.2a12.09,12.09,0,0,1-.5-1.8,2.35,2.35,0,0,1-.2-.8c-.1-.5-.3-1-.4-1.5l-.3-1.2c-.1-.4-.2-.8-.3-1.1-.1-.5-.3-1-.4-1.5-.1-.3-.2-.7-.3-1l-.3-1.2L157.2,439v-.1Z"/><path class="cls-4" d="M146.5,441.5c.3,1.6,1.6,4.1,4.2,6.6,7.7-.8,15.3-1.4,23.4-3l-.1-.3a18.66,18.66,0,0,0-.7-2.2l-.1-.3c-.2-.7-.4-1.4-.6-2.2l-.1-.4c-.2-.7-.3-1.3-.5-2-.1-.2-.1-.5-.2-.7-.1-.5-.2-.9-.3-1.4L157,438.8v-.1Z"/><path class="cls-4" d="M147.8,441.3c.3,1.5,1.7,3.8,4.4,6,7.2-.9,14.3-1.7,21.7-3h0c-.1-.3-.2-.6-.3-1s-.3-1-.4-1.4l-.3-1.2c-.1-.4-.2-.7-.3-1.1s-.3-1-.4-1.4-.2-.7-.3-1l-.3-1.2-14.5,3.2h0Z"/><path class="cls-4" d="M149.1,441c.2,1.3,1.8,3.4,4.6,5.4,6.6-1,13.2-1.9,19.9-3.1-.1-.5-.3-.9-.4-1.4v-.1c-.1-.4-.2-.8-.3-1.1s-.2-.8-.3-1.3-.2-.9-.3-1.3l-.3-1.2c-.1-.4-.2-.7-.3-1.1l-11.3,2.5Z"/><path class="cls-4" d="M150.4,440.7c.2,1.2,1.8,3.1,4.7,4.8,6.1-1,12.1-2,18.2-3.1a20.16,20.16,0,0,0-.7-2.3l-.1-.2c-.2-.7-.3-1.3-.5-2a2.92,2.92,0,0,1-.2-.9l-.3-1.2-7.7,1.7Z"/><path class="cls-4" d="M151.8,440.5c.2,1,1.9,2.7,4.9,4.2l16.5-3c-.1-.3-.2-.7-.3-1l-.3-1.2h0v-.1c-.1-.4-.2-.7-.3-1.1h0v-.1c-.1-.4-.2-.8-.3-1.3-.1-.3-.2-.7-.3-1l-4.2.9Z"/><path class="cls-4" d="M153.1,440.2c.1.9,2,2.3,5.1,3.6,4.9-1,9.9-1.9,14.8-2.9v-.1c-.1-.5-.3-1-.4-1.5a2.92,2.92,0,0,1-.2-.9h0v-.2c-.1-.5-.2-.9-.3-1.4v-.2c-.1-.3-.1-.6-.2-.9l-1.1.3Z"/><path class="cls-4" d="M154.4,440c.1.8,2.1,2,5.2,3l13.2-2.7-.1-.4c-.2-.6-.3-1.2-.5-1.8V438h0l-.3-1.2a3.55,3.55,0,0,1-.2-1Z"/><path class="cls-4" d="M155.7,439.7c0,.6,2.2,1.6,5.4,2.4,3.8-.8,7.7-1.6,11.5-2.5-.1-.5-.3-1.1-.4-1.6h0v-.1h0l-.3-1.2v-.1l-.2-.8h0Z"/><path class="cls-4" d="M157,439.5c0,.5,2.3,1.3,5.6,1.8,3.3-.7,6.6-1.5,9.9-2.2h0c-.1-.2-.1-.5-.2-.7h0c-.2-.6-.3-1.2-.5-1.9h0l-.1-.4h0Z"/><path class="cls-4" d="M158.3,439.2c0,.4,2.4.9,5.8,1.2l8.3-1.9h0c-.1-.6-.3-1.1-.4-1.7h0v-.1h0l-.1-.3h0Z"/><path class="cls-4" d="M159.6,439c-.1.2,2.4.6,5.9.6l6.7-1.6h0c-.1-.4-.2-.7-.3-1.1h0v-.1h0l-.2-.7Z"/><path class="cls-4" d="M160.9,438.7a32.87,32.87,0,0,0,6.1,0l5.1-1.2c-.1-.5-.2-.9-.3-1.4h0Z"/><path class="cls-4" d="M162.2,438.5c-.2,0,2.6-.2,6.3-.6l3.5-.9c-.1-.3-.1-.5-.2-.8h0Z"/><path class="cls-9" d="M163.5,438.2c-.2-.2,2.7-.5,6.4-1.2l86.9-22.1.3-.2H257Z"/><path class="cls-5" d="M301,405.8,177.7,301a176.52,176.52,0,0,1,12.6-13.3Z"/><path class="cls-5" d="M159,328.1l141.8,78.1L154.3,337.4C155.8,334.2,157.4,331.1,159,328.1Z"/><path class="cls-7" d="M477.1,346.3c.9,2.5,1.7,5,2.4,7.6a185.73,185.73,0,0,1-7.3,124.9c-1.2,2.8-2.4,5.7-3.8,8.4-2.6,5.1-4.7,4.6-9.3,2.6L432,475.5a148,148,0,0,0,8-122L467,343C473.5,340.6,474.8,339.8,477.1,346.3Z"/><path class="cls-10" d="M381.4,448.7a91.06,91.06,0,0,1-37.3,37l-42.4-79.1Z"/><path class="cls-11" d="M330.5,312a97.91,97.91,0,0,1,45.9,30.3l-74.7,64.2Z"/><path class="cls-12" d="M180.4,349.6a135.4,135.4,0,0,1,29.5-41l91.8,98Z"/><path class="cls-13" d="M180.4,349.6c1.2-2.6,2.5-5.2,3.9-7.7l116.6,64.2Z"/><path class="cls-14" d="M199.6,319.6a134.25,134.25,0,0,1,10.4-11l25.4,27.1L301,405.8Z"/><path class="cls-15" d="M286.5,538.3c-56.7-6.4-102.6-48.8-115-103.4l130.3-28.4Z"/><path class="cls-12" d="M371.2,536.1a146.32,146.32,0,0,1-53.7,16.5L301.8,406.5Z"/><path class="cls-16" d="M440,353.4a148,148,0,0,1-8,122L301.8,406.5Z"/><path class="cls-17" d="M157.2,439c-2.2-10.1-3.3-16.9-3.3-33.4s4.9-43.2,13.7-62.1l134.3,63Z"/><path class="cls-18" d="M315.4,533.2a124.44,124.44,0,0,1-13.7.7,121.25,121.25,0,0,1-14.8-.9l14.9-126.5Z"/><path class="cls-12" d="M301.7,257.8a148.5,148.5,0,0,1,43.4,6.5L301.8,406.6,200.2,298.2A147.47,147.47,0,0,1,301.7,257.8Z"/><path class="cls-12" d="M301.7,257.8a148.5,148.5,0,0,1,43.4,6.5L301.8,406.6,200.2,298.2A147.47,147.47,0,0,1,301.7,257.8Z"/><path class="cls-16" d="M301.7,257.8a148.5,148.5,0,0,1,43.4,6.5L301.8,406.6,200.2,298.2A147.47,147.47,0,0,1,301.7,257.8Z"/><path class="cls-4" d="M257.9,290.7a7.9,7.9,0,1,0,7.9,7.9A7.85,7.85,0,0,0,257.9,290.7Z"/><circle class="cls-19" cx="211.1" cy="469.2" r="7.9"/><path class="cls-20" d="M315.3,533.2c-2.9.3-5.8.5-8.6.6l-5-127Z"/><path class="cls-21" d="M381.4,448.7c-1.3,2.5-4.6,7.6-6.3,10l-73.4-52.1Z"/><path class="cls-22" d="M365.6,331.4c3.6,3.5,7.8,7,10.9,10.9l-73.9,63.5Z"/><path class="cls-3" d="M119.6,443.1c-.2-.8-.3-1.7-.5-2.5-1.8-9.2-2.9-17.6-2.9-34.5,0-18.7,5.1-48.5,14.4-71.7a24.43,24.43,0,0,1,1-2.4c1.7-3.7,2.6-4,6.4-2.4l29.4,13.8c-8.8,18.9-13.7,45.7-13.7,62.1s1.4,23.9,3.5,33.8l-29.1,6C123.1,446.7,120.5,446.9,119.6,443.1Z"/><path class="cls-7" d="M193.1,255.9l26.2,27A153.05,153.05,0,0,0,200,298.5l-20.3-21.4c-3.5-3.9-5.1-6,.2-10.7C184.2,262.6,188.7,259.1,193.1,255.9Z"/><path class="cls-3" d="M117.6,431.1l37.3-5.3c.6,4.8,1.4,8.9,2.4,13.6l-29.1,6c-5.2,1.2-7.8,1.5-8.6-2.3-.2-.8-.3-1.7-.5-2.5C118.5,437.5,118,434.4,117.6,431.1Z"/><path class="cls-12" d="M448.1,350.6c-3.6-9.7-6.3-16.1-15.3-29.9s-28-33.4-46-44.1L302.5,406.9Z"/><path class="cls-6" d="M479.4,334.1c-.3-.8-.6-1.6-.9-2.3-3.6-8.7-7.3-16.4-16.5-30.6-10.3-15.8-31-38-51.5-52.4l-2.1-1.5c-3.4-2.2-4.4-1.9-6.6,1.4l-17,27.7c17.7,11.1,36.6,31,45.6,44.8s12,20.8,15.6,30.3l27.6-10.8C478.4,338.9,480.8,337.7,479.4,334.1Z"/><path class="cls-4" d="M358.8,332.5a7.9,7.9,0,1,0,7.9,7.9A7.85,7.85,0,0,0,358.8,332.5Z"/><text class="cls-23" transform="translate(369.31 342.94)"><tspan class="cls-24">C</tspan><tspan x="5.28" y="0">ONNECTION</tspan></text><text class="cls-23" transform="translate(269.39 300.63)">SOUL</text><path class="cls-4" d="M380.8,403.9a7.9,7.9,0,1,0,7.9,7.9A7.85,7.85,0,0,0,380.8,403.9Z"/><text class="cls-25" transform="translate(255.17 302.97)">1</text><text class="cls-25" transform="translate(354.8 344.74)">2</text><text class="cls-26" transform="translate(377.63 415.67)">3</text><text class="cls-25" transform="translate(207.34 473.59)">5</text><text class="cls-23" transform="translate(393.12 414.67)">MIN<tspan class="cls-27" x="17.09" y="0">D</tspan><tspan x="23.03" y="0">SET</tspan></text><text class="cls-23" transform="translate(222.33 471.92)">M<tspan class="cls-28" x="7.68" y="0">O</tspan><tspan x="14.06" y="0">VEMENT</tspan></text><path class="cls-4" d="M167.3,384.7a7.9,7.9,0,1,0,7.9,7.9A7.85,7.85,0,0,0,167.3,384.7Z"/><text class="cls-23" transform="translate(176.69 396.57)">SURROUNDINGS</text><text class="cls-25" transform="translate(162.99 396.91)">6</text><path class="cls-29" d="M301.8,345.6a51.2,51.2,0,1,1-51.1,51.3A51.17,51.17,0,0,1,301.8,345.6Z"/><rect class="cls-30" x="255.8" y="389.7" width="91.9" height="17.1"/><text class="cls-31" transform="translate(265.14 405.11)">SOULCARE</text><rect class="cls-30" x="256.2" y="399" width="91.1" height="40.1"/><text class="cls-32" transform="translate(265.29 417.54)">Wheel</text><text class="cls-33" transform="translate(265.29 417.54)">Wheel</text><path class="cls-34" d="M446.3,161.7h2.5V161H447v-7.3h-.7Zm-4.9.1c.9,0,1.4-.6,1.4-1.8v-6.3h-.7v6.2c0,.9-.2,1.2-.7,1.2s-.7-.3-.7-1.2v-6.2H440V160C440,161.2,440.5,161.8,441.4,161.8Zm-6.2-.7c-.6,0-.8-.8-.8-3.4s.2-3.4.8-3.4.8.8.8,3.4S435.8,161.1,435.2,161.1Zm0,.7c1.2,0,1.5-1,1.5-4.1s-.4-4.1-1.5-4.1-1.5,1-1.5,4.1S434,161.8,435.2,161.8Zm-6,0c.9,0,1.4-.6,1.4-2a3.21,3.21,0,0,0-1.1-2.5,2.48,2.48,0,0,1-.9-2c0-.7.2-1,.6-1s.6.4.7,1.4h.7c-.1-1.4-.5-2.1-1.3-2.1s-1.3.6-1.3,1.7a3.21,3.21,0,0,0,1.1,2.5,2.48,2.48,0,0,1,.9,2c0,.9-.2,1.3-.7,1.3s-.7-.5-.8-1.7h-.7C427.8,161.1,428.2,161.8,429.2,161.8Z"/><path class="cls-34" d="M488.7,161.7h2.5V161h-1.9v-3.2h1.6v-.6h-1.6v-2.8h1.9v-.6h-2.5Zm-5.3-.7h-.3v-6.7h.3c.9,0,1.3.9,1.3,3.3S484.3,161,483.4,161Zm0-7.3h-1v8h1c1.4,0,1.9-1.2,1.9-4S484.8,153.7,483.4,153.7Zm-5.8,7.4c-.6,0-.8-.8-.8-3.4s.2-3.4.8-3.4.8.8.8,3.4S478.2,161.1,477.6,161.1Zm0,.7c1.2,0,1.5-1,1.5-4.1s-.4-4.1-1.5-4.1-1.5,1-1.5,4.1S476.4,161.8,477.6,161.8Zm-6.9-.8v-3.2h.3c.9,0,1.2.4,1.2,1.6s-.3,1.6-1.1,1.6Zm0-3.9v-2.8h.3c.8,0,1.1.4,1.1,1.4s-.3,1.4-1.2,1.4Zm-.7,4.6h1.1c1.2,0,1.8-.7,1.8-2.2,0-1.1-.3-1.8-1.1-2h0c.7-.2,1-.8,1-1.7,0-1.3-.6-2-1.8-2h-1Z"/><path class="cls-34" d="M466.4,161.7h-.6v-2.6H452.7v2.6h-.6v-6.1c2.3-2.7,4.6-5.5,7-8.2l.3.3c.9.9,1.7,1.8,2.6,2.7,1.2,1.2,2.4,2.5,3.6,3.7l.9.9C466.4,157.2,466.4,159.4,466.4,161.7Zm-12-3.2h11.4v-.9c-.5-.6-5.5-5.8-5.6-5.9C458.2,153.9,456.3,156.2,454.4,158.5Zm-1.7-1.4c2.1-2.5,4.2-5,6.4-7.5,1.1,1.2,2.2,2.3,3.4,3.5s2.2,2.3,3.4,3.5v-1.3l-6.7-7c-2.1,2.5-4.3,5-6.4,7.5A5.28,5.28,0,0,0,452.7,157.1Zm.8,1.4c.5-.6,6.1-7.2,6.2-7.3a4.35,4.35,0,0,1-.6-.7c-2.1,2.5-4.3,5-6.4,7.5v.4A2.49,2.49,0,0,0,453.5,158.5Z"/><text class="cls-35" transform="translate(433.09 169) scale(1.14 1)">A HOME FOR THE SOUL</text><text class="cls-36" transform="translate(433.09 169) scale(1.14 1)">A HOME FOR THE SOUL</text><image class="cls-37" width="1505" height="1324" transform="translate(284.91 357.6) scale(0.02)" xlink:href="../Soul%20Abode%20Logos/300ppi/soulabode_socialmediaLogoAsset%2012.png"/><path class="cls-4" d="M333.5,481.5a7.91,7.91,0,1,0-5.2,9.9A8,8,0,0,0,333.5,481.5Z"/><text class="cls-26" transform="matrix(0.3, 0.95, -0.95, 0.3, 321.1, 481.21)">4</text><text class="cls-23" transform="matrix(0.3, 0.95, -0.95, 0.3, 326.63, 495.4)">FEELINGS</text></svg>