<?xml version="1.0" encoding="utf-8"?>
<!-- Generator: Adobe Illustrator 24.1.0, SVG Export Plug-In . SVG Version: 6.00 Build 0)  -->
<svg version="1.1" id="_x2014_ÎÓÈ_x5F_1" xmlns="http://www.w3.org/2000/svg" xmlns:xlink="http://www.w3.org/1999/xlink"
	 x="0px" y="0px" viewBox="0 0 595 842" style="enable-background:new 0 0 595 842;" xml:space="preserve">
<style type="text/css">
	.st0{fill-rule:evenodd;clip-rule:evenodd;fill:#E5E3DC;}
	.st1{fill-rule:evenodd;clip-rule:evenodd;fill:url(#SVGID_1_);}
	.st2{fill-rule:evenodd;clip-rule:evenodd;fill:url(#SVGID_2_);}
	.st3{fill:#69625A;}
	.st4{font-family:'BrixtonBook';}
	.st5{font-size:3.6227px;}
	.st6{fill:none;stroke:#69625A;stroke-width:0.25;stroke-miterlimit:10;}
</style>
<path class="st0" d="M408.7,463.2c-11.3,21.2-28.7,38.6-49.9,50l-14.7-27.4c15.8-8.4,28.8-21.3,37.3-37L408.7,463.2z"/>
<path class="st0" d="M398.3,479.4l-24.7-18.7c2.9-3.8,5.5-7.8,7.8-12l-79-41.8l0,0l106.2,56.2C405.7,468.9,402.2,474.3,398.3,479.4z
	"/>
<path class="st0" d="M358.4,512.8l-53.5-100.3l39.3,73.3c4.2-2.2,8.2-4.8,12-7.6l18.5,24.3C369.5,506.3,364,509.8,358.4,512.8z"/>
<linearGradient id="SVGID_1_" gradientUnits="userSpaceOnUse" x1="317.8787" y1="400.3455" x2="329.2432" y2="392.0887" gradientTransform="matrix(1 0 0 1 0 50)">
	<stop  offset="0" style="stop-color:#D6D9DB"/>
	<stop  offset="1" style="stop-color:#FFFFFF"/>
</linearGradient>
<path class="st1" d="M381.4,448.7c-8.5,15.7-21.5,28.6-37.3,37l-42.4-79.1L381.4,448.7z"/>
<linearGradient id="SVGID_2_" gradientUnits="userSpaceOnUse" x1="343.7235" y1="374.5188" x2="338.6096" y2="382.3936" gradientTransform="matrix(1 0 0 1 0 50)">
	<stop  offset="0" style="stop-color:#D6D9DB"/>
	<stop  offset="1" style="stop-color:#FFFFFF"/>
</linearGradient>
<path class="st2" d="M381.4,448.7c-1.3,2.5-4.6,7.6-6.3,10l-73.4-52.1L381.4,448.7z"/>
<g>
	<g>
		<path class="st3" d="M446.3,161.7h2.5V161H447v-7.3h-0.7V161.7z M441.4,161.8c0.9,0,1.4-0.6,1.4-1.8v-6.3h-0.7v6.2
			c0,0.9-0.2,1.2-0.7,1.2s-0.7-0.3-0.7-1.2v-6.2H440v6.3C440,161.2,440.5,161.8,441.4,161.8z M435.2,161.1c-0.6,0-0.8-0.8-0.8-3.4
			c0-2.7,0.2-3.4,0.8-3.4c0.6,0,0.8,0.8,0.8,3.4C436,160.4,435.8,161.1,435.2,161.1z M435.2,161.8c1.2,0,1.5-1,1.5-4.1
			s-0.4-4.1-1.5-4.1c-1.2,0-1.5,1-1.5,4.1S434,161.8,435.2,161.8z M429.2,161.8c0.9,0,1.4-0.6,1.4-2c0-1-0.3-1.7-1.1-2.5
			c-0.7-0.7-0.9-1.2-0.9-2c0-0.7,0.2-1,0.6-1s0.6,0.4,0.7,1.4h0.7c-0.1-1.4-0.5-2.1-1.3-2.1c-0.9,0-1.3,0.6-1.3,1.7
			c0,1,0.3,1.7,1.1,2.5c0.7,0.7,0.9,1.2,0.9,2c0,0.9-0.2,1.3-0.7,1.3s-0.7-0.5-0.8-1.7h-0.7C427.8,161.1,428.2,161.8,429.2,161.8z"
			/>
		<path class="st3" d="M488.7,161.7h2.5V161h-1.9v-3.2h1.6v-0.6h-1.6v-2.8h1.9v-0.6h-2.5V161.7z M483.4,161h-0.3v-6.7h0.3
			c0.9,0,1.3,0.9,1.3,3.3S484.3,161,483.4,161z M483.4,153.7h-1v8h1c1.4,0,1.9-1.2,1.9-4C485.4,154.9,484.8,153.7,483.4,153.7z
			 M477.6,161.1c-0.6,0-0.8-0.8-0.8-3.4c0-2.7,0.2-3.4,0.8-3.4s0.8,0.8,0.8,3.4C478.4,160.4,478.2,161.1,477.6,161.1z M477.6,161.8
			c1.2,0,1.5-1,1.5-4.1s-0.4-4.1-1.5-4.1c-1.2,0-1.5,1-1.5,4.1S476.4,161.8,477.6,161.8z M470.7,161v-3.2h0.3c0.9,0,1.2,0.4,1.2,1.6
			c0,1.2-0.3,1.6-1.1,1.6L470.7,161L470.7,161z M470.7,157.1v-2.8h0.3c0.8,0,1.1,0.4,1.1,1.4s-0.3,1.4-1.2,1.4L470.7,157.1
			L470.7,157.1z M470,161.7h1.1c1.2,0,1.8-0.7,1.8-2.2c0-1.1-0.3-1.8-1.1-2l0,0c0.7-0.2,1-0.8,1-1.7c0-1.3-0.6-2-1.8-2h-1V161.7z"/>
		<path class="st3" d="M466.4,161.7c-0.2,0-0.4,0-0.6,0c0-0.9,0-1.7,0-2.6c-4.4,0-8.7,0-13.1,0c0,0.9,0,1.7,0,2.6
			c-0.2,0-0.4,0-0.6,0c0,0,0-1.7,0-2.6c0-0.8,0-2,0-3.5c2.3-2.7,4.6-5.5,7-8.2c0.1,0.1,0.2,0.2,0.3,0.3c0.9,0.9,1.7,1.8,2.6,2.7
			c1.2,1.2,2.4,2.5,3.6,3.7c0.3,0.3,0.6,0.6,0.9,0.9C466.4,157.2,466.4,159.4,466.4,161.7z M454.4,158.5c3.8,0,7.6,0,11.4,0
			c0-0.3,0-0.6,0-0.9c-0.5-0.6-5.5-5.8-5.6-5.9C458.2,153.9,456.3,156.2,454.4,158.5z M452.7,157.1c2.1-2.5,4.2-5,6.4-7.5
			c1.1,1.2,2.2,2.3,3.4,3.5c1.1,1.2,2.2,2.3,3.4,3.5c0-0.5,0-0.9,0-1.3c-2.2-2.3-4.5-4.7-6.7-7c-2.1,2.5-4.3,5-6.4,7.5
			C452.7,156.2,452.7,156.6,452.7,157.1z M453.5,158.5c0.5-0.6,6.1-7.2,6.2-7.3c-0.2-0.2-0.4-0.4-0.6-0.7c-2.1,2.5-4.3,5-6.4,7.5
			c0,0.2,0,0.3,0,0.4C453,158.5,453.3,158.5,453.5,158.5z"/>
	</g>
	<text transform="matrix(1.142 0 0 1 433.0928 169.0039)" class="st3 st4 st5">A HOME FOR THE SOUL</text>
	<text transform="matrix(1.142 0 0 1 433.0928 169.0039)" class="st6 st4 st5">A HOME FOR THE SOUL</text>
</g>
</svg>
